# xmcd
#
# Track frame offsets:
#	150
#	18392
#	36154
#	50247
#	72372
#	90997
#	108058
#	128060
#	150752
#	167329
#	191546
#
# Disc length: 2837 seconds
#
# Revision: 1
# Processed by: cddbd v1.5.2PL0 Copyright (c) Steve Scherf et al.
# Submitted via: audiograbber 1.83.01
#
DISCID=7c0b130b
DTITLE=Michael Radtke - Bent Pinky
DYEAR=2014
DGENRE=Americana
TTITLE0=There I Go Again
TTITLE1=Things Change
TTITLE2=Finding Love
TTITLE3=I Try
TTITLE4=Death of Me
TTITLE5=Rainsong
TTITLE6=Al's Hammer
TTITLE7=Veteran
TTITLE8=People Watching
TTITLE9=Venom of These Times
TTITLE10=Running Fast
EXTD=UPC: 888295066556
EXTT0=QMCBY1400001
EXTT1=QMCBY1400002
EXTT2=QMCBY1400003
EXTT3=QMCBY1400004
EXTT4=QMCBY1400005
EXTT5=QMCBY1400006
EXTT6=QMCBY1400007
EXTT7=QMCBY1400008
EXTT8=QMCBY1400009
EXTT9=QMCBY1400010
EXTT10=QMCBY1400011
PLAYORDER=
